<?xml version="1.0" encoding="UTF-8" standalone="no"?>
<svg
   xmlns:dc="http://purl.org/dc/elements/1.1/"
   xmlns:cc="http://creativecommons.org/ns#"
   xmlns:rdf="http://www.w3.org/1999/02/22-rdf-syntax-ns#"
   xmlns:svg="http://www.w3.org/2000/svg"
   xmlns="http://www.w3.org/2000/svg"
   xmlns:sodipodi="http://sodipodi.sourceforge.net/DTD/sodipodi-0.dtd"
   xmlns:inkscape="http://www.inkscape.org/namespaces/inkscape"
   width="126.48973mm"
   height="90.360588mm"
   viewBox="0 0 126.48973 90.36059"
   version="1.1"
   id="svg8"
   inkscape:version="1.0.2-2 (e86c870879, 2021-01-15)"
   sodipodi:docname="recursive_parser.svg">
  <defs
     id="defs2" />
  <sodipodi:namedview
     id="base"
     pagecolor="#ffffff"
     bordercolor="#666666"
     borderopacity="1.0"
     inkscape:pageopacity="0.0"
     inkscape:pageshadow="2"
     inkscape:zoom="0.7"
     inkscape:cx="408.30972"
     inkscape:cy="78.084418"
     inkscape:document-units="mm"
     inkscape:current-layer="layer1"
     inkscape:document-rotation="0"
     showgrid="false"
     inkscape:window-width="1431"
     inkscape:window-height="1030"
     inkscape:window-x="64"
     inkscape:window-y="0"
     inkscape:window-maximized="0" />
  <metadata
     id="metadata5">
    <rdf:RDF>
      <cc:Work
         rdf:about="">
        <dc:format>image/svg+xml</dc:format>
        <dc:type
           rdf:resource="http://purl.org/dc/dcmitype/StillImage" />
        <dc:title />
      </cc:Work>
    </rdf:RDF>
  </metadata>
  <g
     inkscape:label="Layer 1"
     inkscape:groupmode="layer"
     id="layer1"
     transform="translate(-62.573962,-63.530299)">
    <path
       style="fill:var(--dark);stroke-width:0.133217"
       d="m 113.47566,153.77894 c -0.15681,-0.0993 -0.20384,-1.90507 -0.29057,-11.1549 -0.12774,-13.62527 -0.40198,-18.58082 -1.59864,-28.88756 -0.28924,-2.49116 -0.58905,-5.54849 -0.66625,-6.79407 -0.0772,-1.24558 -0.18643,-2.54419 -0.24273,-2.8858 -0.10696,-0.64899 0.0108,-1.04411 0.31125,-1.04411 0.41068,0 0.50983,0.42545 0.62865,2.69759 0.10822,2.06942 0.33545,4.30558 1.16839,11.49821 0.30623,2.64436 0.59436,6.20571 0.88852,10.98225 0.25913,4.2077 0.4985,25.2862 0.29009,25.5444 -0.15829,0.19611 -0.23722,0.20321 -0.48871,0.044 z M 63.515025,142.13422 c -0.06494,-0.17082 -0.174923,-1.20491 -0.244397,-2.298 -0.138829,-2.18426 -0.107472,-2.31869 0.677546,-2.90479 1.010014,-0.75409 2.505994,0.22315 1.945328,1.27076 -0.129987,0.24288 -0.125213,0.31142 0.02509,0.3602 0.102094,0.0331 0.410428,0.28372 0.685189,0.55687 0.838393,0.83346 0.610251,1.80647 -0.574797,2.45146 -0.600555,0.32686 -1.629951,0.46824 -1.756873,0.24129 -0.03073,-0.0549 -0.03761,-0.025 -0.01528,0.0666 0.136408,0.55956 -0.5379,0.7919 -0.741804,0.2556 z m 1.397181,-1.0216 c 0.511138,0 1.311019,-0.51121 1.363561,-0.87145 0.07578,-0.51956 -0.290563,-0.79376 -1.060479,-0.79376 -0.614696,0 -0.714923,-0.0367 -0.748874,-0.27401 -0.02172,-0.15179 0.141684,-0.50162 0.366347,-0.78432 0.529701,-0.66654 0.521634,-0.87332 -0.03407,-0.87332 -0.657073,0 -0.75948,0.18803 -0.75818,1.39211 0.0016,1.51244 0.135524,2.52101 0.311333,2.3452 0.07725,-0.0773 0.32941,-0.14045 0.560364,-0.14045 z m 13.814341,0.31142 c -0.09159,-0.0369 -0.166522,-0.21605 -0.166522,-0.39798 0,-0.28205 0.05381,-0.32458 0.365208,-0.28864 0.403345,0.0466 0.582431,0.46571 0.280681,0.65694 -0.197903,0.12541 -0.236242,0.12779 -0.479367,0.0297 z m 2.272615,-0.1297 c -0.12775,-0.33291 0.139801,-0.6434 0.593603,-0.68887 0.324419,-0.0325 0.42748,0.02 0.502456,0.25628 0.06695,0.21093 0.02422,0.34845 -0.147294,0.47385 -0.333492,0.24385 -0.847941,0.22148 -0.948765,-0.0413 z m 3.975483,-0.0313 c -0.29723,-0.19146 -0.126186,-0.61665 0.248064,-0.61665 0.264004,0 0.331221,0.0672 0.331221,0.33122 0,0.34978 -0.271622,0.48361 -0.579285,0.28543 z m -10.511048,-0.64688 c -0.09159,-0.0322 -0.166522,-0.19435 -0.166522,-0.36029 0,-0.22513 0.14084,-0.36522 0.554872,-0.55192 l 0.554873,-0.25022 -0.426108,-0.0872 c -0.234358,-0.0479 -0.858723,-0.037 -1.387479,0.0243 -0.528755,0.0613 -1.569424,0.11409 -2.312596,0.11731 -1.128503,0.005 -1.364932,-0.0299 -1.434383,-0.21086 -0.168794,-0.43987 0.151399,-0.5398 2.018863,-0.63008 1.943911,-0.094 2.800481,-0.23337 2.393566,-0.38952 -0.131512,-0.0505 -0.228042,-0.22918 -0.228042,-0.42219 0,-0.41512 0.394443,-0.53829 1.393627,-0.43516 1.367275,0.14111 2.190922,0.83704 1.817176,1.5354 -0.348857,0.65184 -2.310955,1.82463 -2.777847,1.66038 z m 69.528903,-4.45395 c 0.0541,-0.37886 0.69114,-0.65008 0.94068,-0.40054 0.25188,0.25188 -0.0508,0.61448 -0.55446,0.66429 -0.38216,0.0378 -0.42513,0.008 -0.38622,-0.26375 z m 3.1527,-0.0713 c -0.20923,-0.25211 0.10147,-0.57335 0.55455,-0.57335 0.38501,0 0.74343,0.29994 0.61218,0.51231 -0.1277,0.20663 -1.0077,0.25266 -1.16673,0.061 z m 3.47336,-0.25472 c -0.25527,-0.30759 0.2001,-0.62997 0.7405,-0.52423 0.49092,0.096 0.6628,0.25894 0.5589,0.52968 -0.10966,0.28576 -1.06103,0.28177 -1.2994,-0.005 z m -86.202064,-4.18657 c -0.462775,-0.27005 -0.710199,-1.29904 -0.710005,-2.95278 l 1.87e-4,-1.55862 0.687043,-0.67277 c 0.733709,-0.71845 1.002908,-0.80027 1.496232,-0.45473 0.272081,0.19057 0.30341,0.2999 0.248801,0.86823 -0.05711,0.59431 -0.03579,0.65689 0.24806,0.72813 0.389553,0.0978 1.214609,0.99798 1.327723,1.44866 0.186261,0.74214 -0.730197,1.7992 -1.559877,1.7992 -0.479123,0 -0.987421,-0.42195 -0.871667,-0.7236 0.07178,-0.18705 0.186984,-0.2157 0.592158,-0.14725 0.427628,0.0722 0.550824,0.0341 0.821778,-0.25429 0.29277,-0.31164 0.303411,-0.36792 0.130615,-0.69079 -0.303807,-0.56767 -0.669694,-0.74325 -1.178924,-0.56573 -0.359805,0.12543 -0.469888,0.11449 -0.648844,-0.0645 -0.198551,-0.19854 -0.1924,-0.26311 0.07811,-0.8199 0.161499,-0.33242 0.291478,-0.70769 0.288843,-0.83396 -0.0076,-0.36427 -0.645066,0.48982 -0.740104,0.99161 -0.08523,0.45003 0.148456,2.66596 0.345169,3.27299 0.08745,0.26986 0.06574,0.41678 -0.08365,0.56617 -0.23423,0.23423 -0.190027,0.22824 -0.471653,0.0639 z m 16.14098,-0.59582 c -0.147406,-0.17761 -0.141661,-0.2467 0.03523,-0.42358 0.285684,-0.28569 0.662346,-0.12697 0.607707,0.25607 -0.05205,0.36488 -0.403201,0.45637 -0.642933,0.16751 z m 2.677251,-0.11767 c -0.122385,-0.14746 -0.126594,-0.2669 -0.01667,-0.47232 0.165626,-0.30948 0.406555,-0.35253 0.644,-0.11509 0.187885,0.18788 0.214389,0.63944 0.03751,0.63944 -0.06728,0 -0.207542,0.0327 -0.311695,0.0727 -0.104159,0.04 -0.263093,-0.0162 -0.353184,-0.1247 z m 2.850222,-0.087 c -0.119666,-0.37704 0.07865,-0.55823 0.551794,-0.50416 0.307607,0.0351 0.382573,0.10897 0.382573,0.37676 0,0.27646 -0.07161,0.33999 -0.421569,0.37394 -0.334479,0.0324 -0.440415,-0.0185 -0.512798,-0.24654 z m 59.385041,-0.15499 c -0.24216,-0.29709 -0.43459,-2.01748 -0.43459,-3.88546 v -1.79715 l 0.38692,-0.27551 c 0.26896,-0.19151 0.59302,-0.2755 1.06304,-0.2755 0.70514,0 1.74726,0.33351 1.74726,0.55917 0,0.0718 0.18444,-0.0246 0.40987,-0.21429 0.49083,-0.413 0.92771,-0.44048 1.25492,-0.0789 0.1824,0.20156 0.28377,0.23021 0.4186,0.11832 0.0978,-0.0812 0.27529,-0.11028 0.39433,-0.0646 0.17475,0.0671 0.1993,0.19719 0.12751,0.67592 -0.10159,0.67741 0.0789,1.13588 0.44714,1.13588 0.37701,0 0.61767,0.35079 0.41128,0.59948 -0.26172,0.31535 -0.78397,0.23566 -1.20324,-0.1836 -0.36548,-0.36549 -0.39352,-0.3723 -0.59886,-0.1454 -0.35363,0.39076 -0.92656,0.57508 -1.24981,0.40208 -0.17488,-0.0936 -0.27853,-0.0995 -0.27853,-0.016 0,0.22446 -0.97301,0.80879 -1.34678,0.80879 -0.19383,0 -0.42074,-0.0823 -0.50424,-0.18294 -0.22502,-0.27112 -0.0326,-0.61637 0.34353,-0.61637 0.40191,0 1.10784,-0.67257 1.10784,-1.05548 0,-0.58399 -0.73567,-1.00314 -1.61347,-0.91928 l -0.45139,0.0431 0.002,1.86504 c 0.001,1.02577 0.0308,2.25261 0.0666,2.72631 0.054,0.71459 0.029,0.86871 -0.14701,0.90493 -0.11664,0.024 -0.27526,-0.0338 -0.35247,-0.12858 z m 3.95639,-4.52692 c 0.32579,-0.34969 0.33339,-0.42386 0.0662,-0.64565 -0.25931,-0.2152 -0.42842,-0.0564 -0.54138,0.50841 -0.10173,0.50862 0.0803,0.56118 0.47522,0.13724 z M 76.650579,130.1 c -0.187947,-0.18795 -0.06881,-0.53258 0.378742,-1.09559 0.255732,-0.32171 0.464967,-0.59925 0.464967,-0.61676 0,-0.17313 -5.960757,0.29852 -6.211019,0.49145 -0.384345,0.29629 -0.742704,-0.2301 -0.460316,-0.67616 0.161361,-0.25489 2.623053,-0.56285 4.432952,-0.55458 1.392871,0.006 1.935624,-0.13766 1.205029,-0.31979 -0.592803,-0.14776 -1.205041,-0.47595 -1.287164,-0.68996 -0.402262,-1.04827 2.538329,-1.33907 3.599162,-0.35592 0.297329,0.27556 0.341871,0.40746 0.283798,0.84044 -0.07187,0.53584 -0.669602,1.53346 -1.497594,2.49951 -0.463272,0.54051 -0.713783,0.67213 -0.908557,0.47736 z m 1.643012,-3.03711 c 0,-0.26831 -0.345881,-0.42959 -1.132346,-0.52798 l -0.666086,-0.0833 0.732694,0.28628 c 0.402982,0.15745 0.789645,0.3389 0.859251,0.40323 0.173646,0.16047 0.206487,0.14803 0.206487,-0.0782 z m 54.396299,0.86946 c -0.65863,-0.29904 -0.91056,-0.64607 -1.10647,-1.52419 -0.20131,-0.90228 0.0936,-1.89106 0.77874,-2.61133 0.57473,-0.60418 1.18279,-0.71036 1.71351,-0.29922 0.79265,0.61406 0.36249,1.69882 -0.9299,2.34495 -0.4213,0.21063 -0.766,0.46207 -0.766,0.55875 0,0.0967 0.14081,0.33948 0.31291,0.53956 0.28251,0.32842 0.40225,0.36475 1.23226,0.37377 0.84034,0.009 0.92291,0.035 0.9608,0.30123 0.0337,0.23711 -0.0529,0.31742 -0.46626,0.43221 -0.71591,0.1988 -1.09232,0.17361 -1.72959,-0.11573 z m 0.57885,-3.11742 c 0.46635,-0.42738 0.5158,-0.75411 0.11414,-0.75411 -0.22284,0 -0.86989,0.75078 -0.86989,1.00935 0,0.30201 0.23387,0.22303 0.75575,-0.25524 z m -5.55137,2.96564 c -0.78507,-0.15759 -1.23901,-0.50886 -1.38041,-1.06817 -0.25054,-0.99105 0.55956,-2.42584 1.46772,-2.59951 0.36414,-0.0696 0.50532,-0.003 1.05228,0.49993 l 0.63172,0.58034 -0.0714,-1.67625 c -0.045,-1.05622 -0.13761,-1.78224 -0.25037,-1.9628 -0.15257,-0.24429 -0.14845,-0.31705 0.0279,-0.49342 0.26933,-0.26933 0.63439,-0.12578 0.81546,0.32065 0.13899,0.34268 0.37078,5.11901 0.26418,5.44374 -0.11201,0.34121 -0.556,0.15248 -0.94015,-0.39966 -0.21665,-0.31139 -0.61063,-0.80008 -0.8755,-1.08596 l -0.48158,-0.51979 -0.32599,0.30625 c -0.38656,0.36315 -0.65311,1.0893 -0.53567,1.45931 0.0557,0.17564 0.24832,0.29193 0.57581,0.34774 1.2429,0.21178 1.50963,0.32679 1.46618,0.63217 -0.0486,0.34159 -0.48586,0.407 -1.44018,0.21543 z m 9.34247,0.024 c -0.12337,-0.0782 -0.20498,-0.51233 -0.2523,-1.34239 l -0.07,-1.22686 -0.55976,0.0839 c -0.39594,0.0594 -0.60411,0.0305 -0.71127,-0.0986 -0.24114,-0.29056 0.10804,-0.6341 0.72922,-0.71741 l 0.54282,-0.0728 0.0747,-1.25123 c 0.0484,-0.81103 0.16041,-1.42613 0.31841,-1.74834 0.61929,-1.26289 2.31044,-1.49263 2.97416,-0.40402 0.30574,0.50146 0.34255,0.94043 0.096,1.14504 -0.2298,0.19072 -0.46124,0.0267 -0.73444,-0.52065 -0.25492,-0.51065 -0.67817,-0.64551 -1.18113,-0.37633 -0.40474,0.21661 -0.711,1.22291 -0.711,2.33621 v 0.83407 l 0.56503,0.041 c 0.42834,0.0311 0.57653,0.10156 0.61258,0.29144 0.0606,0.3193 -0.19138,0.4776 -0.76444,0.48018 l -0.45274,0.002 0.0797,1.12951 c 0.0642,0.91037 0.0404,1.16883 -0.12295,1.33217 -0.23619,0.2362 -0.2014,0.22951 -0.43259,0.0831 z m 15.29922,-0.22212 c -0.14115,-0.37124 -0.17434,-2.21008 -0.0484,-2.67976 0.0945,-0.35229 0.42076,-0.50015 0.66196,-0.29997 0.12917,0.1072 0.15726,0.38628 0.10417,1.03473 l -0.0727,0.88794 0.40127,-0.82228 c 0.2207,-0.45226 0.52197,-0.88688 0.66949,-0.96583 0.32866,-0.1759 1.8393,-0.19096 1.94534,-0.0194 0.0446,0.0721 0.22942,0.0445 0.44081,-0.0658 0.44324,-0.23122 1.78196,-0.25242 2.00267,-0.0317 0.23886,0.23886 0.19408,0.63755 -0.0733,0.65235 -0.12822,0.007 -0.47292,0.004 -0.766,-0.008 l -0.53287,-0.0204 0.53287,0.288 c 0.29308,0.1584 0.66775,0.41203 0.83261,0.56362 0.62543,0.57512 0.19844,1.44782 -0.79843,1.63184 -0.68094,0.1257 -1.16653,-0.0123 -1.16653,-0.33159 0,-0.31796 0.22372,-0.46434 0.66228,-0.43336 0.18527,0.0131 0.42678,-0.0356 0.53668,-0.1081 0.1695,-0.1119 0.15046,-0.17016 -0.12552,-0.38395 -0.17895,-0.13863 -0.55264,-0.32014 -0.83044,-0.40337 -0.2778,-0.0832 -0.56812,-0.26911 -0.64516,-0.41307 -0.11332,-0.21173 -0.28083,-0.26174 -0.87676,-0.26174 h -0.73667 l -0.47304,1.03243 c -0.26017,0.56784 -0.5653,1.13735 -0.67807,1.26557 -0.31179,0.35453 -0.8116,0.29837 -0.96632,-0.10859 z m 14.26235,-0.0697 c -0.18052,-0.0737 -0.79845,-0.12263 -1.37318,-0.10877 -1.13672,0.0274 -1.46589,-0.11269 -1.2123,-0.51593 0.18901,-0.30057 2.10732,-0.38213 2.98031,-0.12671 0.50016,0.14634 0.59948,0.2296 0.59948,0.50258 0,0.25277 -0.0757,0.33351 -0.33304,0.35499 -0.18318,0.0153 -0.48075,-0.0325 -0.66127,-0.10616 z m 8.71623,-0.4474 c -0.38919,-0.16364 -0.91103,-0.74229 -1.25497,-1.39159 -0.48565,-0.91682 0.0292,-3.13694 0.93988,-4.05264 0.43341,-0.43581 0.5442,-0.48726 0.77887,-0.36166 0.35403,0.18947 0.34509,0.28204 -0.0723,0.74911 -0.51683,0.57828 -1.01399,1.76852 -1.02584,2.45592 -0.0133,0.77402 0.44921,1.62512 1.01985,1.87656 0.48541,0.21388 0.60784,0.57554 0.25818,0.76267 -0.16584,0.0887 -0.37029,0.0766 -0.64363,-0.0384 z m -5.86781,-0.13176 c -0.28518,-0.20843 -0.41683,-1.4883 -0.44198,-4.29696 -0.008,-0.91049 -0.0694,-1.52548 -0.15736,-1.57984 -0.17748,-0.10969 -0.0419,-0.71111 0.22781,-1.01047 0.27964,-0.31041 0.88889,-0.39878 1.63944,-0.23782 0.85829,0.18407 1.14093,0.51154 1.14093,1.32186 0,0.51867 -0.0798,0.73773 -0.42563,1.16804 l -0.42563,0.52964 0.53211,0.23994 c 1.03809,0.46812 1.81046,1.79022 1.47542,2.52557 -0.31664,0.69494 -1.71936,1.17695 -2.62037,0.90042 -0.37742,-0.11583 -0.42576,-0.10399 -0.37458,0.0917 0.0934,0.35697 -0.26149,0.57349 -0.57016,0.34789 z m 1.52331,-1.23844 c 0.95125,-0.007 1.39512,-0.24458 1.28407,-0.68701 -0.20206,-0.80509 -0.83672,-1.28337 -2.05101,-1.54563 l -0.45351,-0.098 0.0872,0.83395 c 0.0479,0.45867 0.0872,1.04231 0.0872,1.29697 0,0.35043 0.0405,0.43166 0.16652,0.33401 0.0916,-0.071 0.48741,-0.13141 0.8796,-0.13434 z m -0.45009,-3.6474 c 0.85313,-0.74906 0.75027,-1.45055 -0.21269,-1.45055 h -0.51656 v 0.93252 c 0,0.51289 0.0579,0.93252 0.12859,0.93252 0.0707,0 0.34102,-0.18652 0.60066,-0.41449 z m -10.65393,4.81794 c -0.87204,-0.35692 -1.03895,-1.39293 -0.40006,-2.48312 0.49713,-0.84827 0.95531,-1.25424 1.41557,-1.25424 0.48237,0 0.78084,0.44433 0.68889,1.02555 -0.067,0.42327 -0.80254,1.33567 -1.29015,1.60027 -0.41852,0.22711 -0.10878,0.43817 0.64304,0.43817 0.82533,0 1.15085,0.23735 0.80283,0.58537 -0.23132,0.23132 -1.37747,0.28554 -1.86012,0.088 z m 0.84325,-2.73869 c -0.0409,-0.041 -0.17973,0.0923 -0.30839,0.29604 l -0.23393,0.3705 0.30839,-0.29604 c 0.16962,-0.16282 0.27489,-0.32954 0.23393,-0.3705 z m 22.61842,2.1597 c -0.21545,-0.15754 -0.21298,-0.20313 0.0413,-0.76374 0.40912,-0.90194 0.36738,-1.90336 -0.12,-2.87868 -0.40725,-0.81498 -1.08119,-1.45598 -1.40155,-1.33305 -0.25823,0.0991 -0.50445,-0.25249 -0.40228,-0.57442 0.177,-0.55767 1.17592,-0.24961 1.91309,0.58998 1.13906,1.29732 1.45256,3.11363 0.76643,4.44046 -0.29638,0.57313 -0.52225,0.72035 -0.797,0.51945 z m -4.29748,-0.16268 c -0.1139,-0.29682 0.19856,-0.59778 0.62063,-0.59778 0.41491,0 0.62069,0.33065 0.38357,0.61636 -0.2056,0.24773 -0.90698,0.23475 -1.0042,-0.0186 z m -1.59849,-0.13293 c -0.12114,-0.31568 0.25733,-0.64608 0.61136,-0.53371 0.20031,0.0636 0.27645,0.18025 0.24798,0.38004 -0.0523,0.36747 -0.73075,0.48879 -0.85934,0.15367 z m 3.2842,-0.13011 c -0.27156,-0.32721 -0.0597,-0.60118 0.46485,-0.60118 0.30078,0 0.50295,0.0738 0.55196,0.20152 0.10648,0.2775 -0.18925,0.59779 -0.55196,0.59779 -0.16523,0 -0.37441,-0.0892 -0.46485,-0.19813 z m 5.74899,-0.54743 c -0.34307,-0.2403 -0.34963,-0.7594 -0.0104,-0.82398 0.36348,-0.0692 0.83462,0.41241 0.729,0.7452 -0.10985,0.3461 -0.30619,0.36763 -0.71858,0.0788 z M 63.808091,122.75508 c -0.108945,-0.0704 -0.194821,-0.70256 -0.253824,-1.86835 -0.07266,-1.4357 -0.13467,-1.81436 -0.334913,-2.04524 -0.297025,-0.34248 -0.299199,-0.38962 -0.04591,-0.99582 0.109904,-0.26304 0.199826,-0.59271 0.199826,-0.7326 0,-0.30703 0.358719,-0.47342 0.568466,-0.26367 0.083,0.083 0.321485,0.15091 0.52997,0.15091 0.760654,0 1.220172,0.82262 0.912119,1.63287 -0.106224,0.27939 -0.06441,0.34847 0.344065,0.56845 0.474656,0.25562 0.975809,1.03481 0.975809,1.51718 0,0.77359 -0.808401,1.47697 -1.697497,1.47697 -0.466761,0 -0.555019,0.0445 -0.591234,0.29837 -0.04501,0.31548 -0.331788,0.43878 -0.606872,0.26093 z m 1.866255,-1.65736 c 0.465357,-0.53437 -0.06645,-1.32459 -0.859928,-1.27777 l -0.508633,0.03 v 0.82719 0.82719 l 0.566173,-0.0677 c 0.337777,-0.0404 0.661463,-0.17711 0.802388,-0.33893 z m -1.162517,-2.51083 c 0.23535,-0.45512 0.178286,-0.78728 -0.135254,-0.78728 -0.152974,0 -0.204007,0.14996 -0.204007,0.59948 0,0.32971 0.02843,0.59947 0.06319,0.59947 0.03475,0 0.158986,-0.18525 0.276073,-0.41167 z m 121.346061,3.73262 c -0.24526,-0.27101 -0.17942,-0.61838 0.14048,-0.74114 0.28036,-0.10758 0.6008,0.1866 0.6008,0.55157 0,0.40068 -0.44682,0.51494 -0.74128,0.18957 z M 80.559691,121.33156 c -0.237909,-0.28666 -0.06441,-0.60117 0.331635,-0.60117 0.187772,0 0.376204,0.0907 0.418737,0.20152 0.08829,0.23008 -0.169283,0.59778 -0.418737,0.59778 -0.09196,0 -0.241196,-0.0892 -0.331635,-0.19813 z m 2.977548,-0.53456 c -0.105538,-0.27502 0.03756,-0.59948 0.264372,-0.59948 0.103232,0 0.262322,0.0899 0.353536,0.19983 0.132309,0.15942 0.132309,0.24022 0,0.39965 -0.09121,0.1099 -0.250304,0.19982 -0.353536,0.19982 -0.103232,0 -0.222199,-0.0899 -0.264372,-0.19982 z m 3.596864,0 c -0.15622,-0.4071 0.05754,-0.59948 0.666083,-0.59948 0.631684,0 0.893588,0.26731 0.603901,0.61636 -0.209974,0.253 -1.171328,0.24022 -1.269984,-0.0169 z m -11.36683,-0.19084 c -0.115,-0.21488 -0.06822,-0.30699 0.282907,-0.55701 0.382,-0.27201 0.397303,-0.30873 0.1664,-0.39927 -0.139859,-0.0549 -0.464107,-0.10442 -0.72055,-0.11016 -0.605462,-0.0136 -4.48594,0.49417 -4.963834,0.64947 -0.272474,0.0885 -0.419259,0.0681 -0.566173,-0.0788 -0.252777,-0.25278 -0.253038,-0.25118 0.09322,-0.57377 0.160355,-0.14939 0.445107,-0.27026 0.632782,-0.2686 0.187675,0.002 1.10385,-0.0996 2.035944,-0.22509 1.605946,-0.21617 1.691031,-0.2428 1.624365,-0.50842 -0.105599,-0.42073 0.304135,-0.70114 1.246175,-0.85286 1.240265,-0.19974 2.058969,0.158 2.434068,1.06357 0.151337,0.36536 0.128599,0.4173 -0.417008,0.95267 -0.730715,0.717 -1.323987,1.16572 -1.541258,1.16572 -0.09309,0 -0.231258,-0.11586 -0.307039,-0.25745 z m 76.284237,-6.22579 c -0.23604,-0.23604 -0.0658,-0.57589 0.34414,-0.68715 0.69386,-0.1883 1.15745,0.19801 0.73936,0.6161 -0.16995,0.16995 -0.93447,0.22008 -1.0835,0.071 z m -3.37107,-0.64389 c -0.12583,-0.32792 0.0552,-0.59947 0.39965,-0.59947 0.371,0 0.561,0.34702 0.33747,0.61636 -0.20189,0.24326 -0.64115,0.2332 -0.73712,-0.0169 z m -2.93077,-0.13321 c -0.11661,-0.30387 0.0466,-0.59948 0.33098,-0.59948 0.32319,0 0.60667,0.33501 0.50584,0.59778 -0.10003,0.26066 -0.73695,0.26195 -0.83682,0.002 z m -82.77144,-1.39016 c -0.109362,-0.20434 -0.09644,-0.55343 0.05084,-1.37356 0.108608,-0.60477 0.294046,-2.05874 0.412084,-3.23106 0.118038,-1.17231 0.241885,-2.26544 0.275216,-2.42918 0.08515,-0.41832 0.651017,-0.53992 1.012819,-0.21764 0.403327,0.35925 0.58232,0.85546 1.245063,3.45159 0.325828,1.27635 0.719665,2.59135 0.875194,2.92222 0.313303,0.66653 0.266912,1.00222 -0.138501,1.00222 -0.315561,0 -0.588488,-0.38333 -0.829917,-1.16565 -0.157199,-0.50937 -0.37629,-0.76516 -0.37629,-0.43931 0,0.0698 -0.374673,0.14471 -0.832607,0.16652 l -0.832607,0.0397 -0.06661,0.7327 c -0.05698,0.62676 -0.10864,0.73868 -0.357334,0.77408 -0.185842,0.0265 -0.343623,-0.0575 -0.437353,-0.23259 z m 2.445053,-2.63966 c -0.557813,-2.25622 -0.898745,-3.49368 -0.94876,-3.44366 -0.04989,0.0499 -0.429669,3.35773 -0.433607,3.7767 -0.0011,0.11096 0.218057,0.16652 0.656659,0.16652 0.362023,0 0.695274,0.06 0.740556,0.13322 0.172291,0.27877 0.168282,0.10793 -0.01485,-0.63278 z m 14.408725,1.84212 c -0.126002,-0.20387 0.145269,-0.63281 0.450723,-0.71269 0.357037,-0.0934 0.640984,0.24855 0.454216,0.54695 -0.160469,0.25638 -0.778917,0.36965 -0.904939,0.16574 z m 3.381351,-0.22138 c -0.12382,-0.14919 -0.135567,-0.27368 -0.04008,-0.42502 0.195302,-0.30962 0.388394,-0.3381 0.633119,-0.0934 0.163073,0.16308 0.181768,0.27716 0.07738,0.47221 -0.167011,0.31206 -0.434459,0.33049 -0.670403,0.0462 z m 3.426138,-0.1184 c -0.0435,-0.11335 0.04708,-0.2819 0.214571,-0.3992 0.250299,-0.17532 0.315648,-0.17723 0.478897,-0.014 0.103977,0.10397 0.152756,0.28361 0.108403,0.3992 -0.101807,0.2653 -0.701418,0.27575 -0.801871,0.014 z M 76.300423,109.7461 c -0.09246,-0.11141 -0.133316,-0.29325 -0.09078,-0.40409 0.06271,-0.16342 -0.04933,-0.20152 -0.592609,-0.20152 -1.077313,0 -5.08763,0.40147 -5.431294,0.54372 -0.34391,0.14235 -0.684481,-0.0352 -0.684481,-0.35678 0,-0.44588 0.811118,-0.59478 5.152812,-0.94593 l 0.95647,-0.0773 -0.550162,-0.28122 c -0.640716,-0.32751 -0.727744,-0.49757 -0.414777,-0.81054 0.258416,-0.25841 0.980092,-0.20723 2.083958,0.14782 1.017819,0.32736 1.178538,0.99306 0.464992,1.92599 -0.502029,0.65638 -0.662544,0.73894 -0.894126,0.4599 z m 48.381867,-0.68588 c -1.99774,-0.27142 -2.68026,-0.63212 -2.10286,-1.11131 0.18235,-0.15134 1.35189,-0.11741 2.59369,0.0752 l 0.45334,0.0703 -0.0863,-1.02065 c -0.15753,-1.86362 -0.61243,-2.35739 -3.42512,-3.71777 -1.90164,-0.91976 -2.77125,-1.19399 -6.58384,-2.07622 -3.72028,-0.86087 -6.50498,-0.88657 -8.26289,-0.0763 -0.87875,0.40507 -4.21338,2.91438 -5.08027,3.82291 -0.37625,0.39433 -1.03066,1.22652 -1.45424,1.84931 -1.390568,2.04455 -1.439302,2.08966 -1.794802,1.66131 -0.142303,-0.17146 -0.0025,-0.45096 0.882904,-1.76512 1.310798,-1.94555 2.439668,-3.08508 4.629798,-4.67353 2.00887,-1.45698 2.95837,-1.93781 4.26167,-2.158098 1.34587,-0.227489 4.36417,-0.08458 5.81528,0.275338 0.62279,0.15447 2.00518,0.48199 3.07198,0.72781 2.88892,0.66569 5.56307,1.79086 7.34563,3.09074 0.81696,0.59573 1.27033,1.51253 1.38872,2.80824 0.0485,0.53121 0.12461,0.96564 0.16904,0.9654 0.0444,-2.7e-4 0.25506,-0.42537 0.46807,-0.94474 0.41201,-1.00458 0.64121,-1.21403 0.9694,-0.88584 0.18277,0.18277 0.13865,0.34941 -0.4297,1.6227 -0.59683,1.3371 -0.87168,1.69227 -1.28458,1.66 -0.0964,-0.008 -0.79162,-0.0974 -1.54494,-0.19979 z m 21.09086,-1.15199 c -0.12745,-0.39901 -0.73775,-4.11724 -0.73775,-4.49476 0,-0.22918 -0.0545,-0.38299 -0.12119,-0.34179 -0.21534,0.13309 -0.54489,-0.0802 -0.54489,-0.35262 0,-0.78828 0.86499,-1.43838 1.91384,-1.43838 0.4854,0 0.69966,0.0805 1.06249,0.39904 0.24997,0.21947 0.52909,0.57915 0.62028,0.7993 0.1919,0.46329 0.34011,0.51011 0.43737,0.13816 0.0935,-0.35759 0.90657,-0.72985 1.35065,-0.61839 0.19277,0.0484 0.46749,0.20498 0.61051,0.34799 0.14396,0.14396 0.35132,0.22499 0.46457,0.18153 0.33457,-0.12838 0.62343,0.21109 0.53238,0.62566 -0.0624,0.28414 -0.0127,0.4128 0.22354,0.57825 0.1671,0.11704 0.40303,0.2128 0.5243,0.2128 0.30096,0 0.54222,0.31874 0.44097,0.58259 -0.16486,0.42961 -1.46041,0.138 -1.75924,-0.39598 -0.10721,-0.19156 -0.17453,-0.18484 -0.66741,0.0666 -0.30149,0.15381 -0.71706,0.27966 -0.92348,0.27966 -0.42528,0 -0.96747,-0.32873 -0.96747,-0.58657 0,-0.0945 -0.25093,0.0599 -0.55762,0.34298 -0.36296,0.33509 -0.73499,0.54315 -1.06574,0.59604 -0.27946,0.0447 -0.50812,0.14385 -0.50812,0.22037 0,0.0765 0.0948,0.6449 0.21062,1.26309 0.2399,1.28031 0.18059,1.76095 -0.21734,1.76095 -0.14744,0 -0.29201,-0.0749 -0.32127,-0.16652 z m 1.36855,-4.27713 0.31566,-0.31565 -0.27278,-0.5347 c -0.29523,-0.57869 -0.48815,-0.70077 -1.10741,-0.70077 h -0.40184 l 0.0893,0.83261 c 0.13741,1.28158 0.14579,1.29676 0.6379,1.15563 0.23295,-0.0668 0.56559,-0.26351 0.73919,-0.43712 z m 2.58508,-0.12504 0.36182,-0.16052 -0.25631,-0.33304 c -0.20928,-0.27193 -0.30012,-0.30613 -0.49504,-0.18639 -0.28805,0.17696 -0.40639,0.85533 -0.14765,0.84647 0.0964,-0.003 0.33818,-0.0782 0.53718,-0.16652 z m 33.23112,3.14771 c -0.15455,-0.15455 -0.0962,-0.5385 0.10749,-0.70757 0.35058,-0.29095 0.3759,-0.98563 0.0778,-2.13558 -0.35917,-1.38564 -0.67496,-2.00208 -1.28196,-2.50241 -0.54097,-0.44592 -0.57801,-0.86642 -0.0825,-0.93697 0.46799,-0.0666 1.38502,0.93399 1.74913,1.90857 0.42493,1.13737 0.70171,2.56889 0.60611,3.13477 -0.15668,0.92736 -0.80488,1.61036 -1.17605,1.23919 z m -46.54824,-1.14345 c -0.0728,-0.0916 -0.17394,-0.61613 -0.22464,-1.16565 -0.0736,-0.79801 -0.14985,-1.04379 -0.37863,-1.22104 -0.24505,-0.18984 -0.26404,-0.26684 -0.13143,-0.53286 0.0853,-0.17103 0.17342,-0.80457 0.19593,-1.40787 0.0371,-0.99336 0.0757,-1.13169 0.40958,-1.465388 0.30784,-0.30768 0.47799,-0.366881 1.03116,-0.358762 0.72402,0.01063 1.32935,0.41298 1.32935,0.88359 0,0.33528 -0.35787,0.44994 -0.63774,0.20434 -0.3996,-0.35066 -0.82277,-0.41067 -1.10363,-0.15649 -0.2014,0.18227 -0.25689,0.41196 -0.25689,1.06349 0,0.93619 0.0566,0.99273 0.99371,0.99273 0.6218,0 0.92792,0.2304 0.78859,0.5935 -0.0715,0.18622 -0.22833,0.21958 -0.86267,0.18341 -0.7154,-0.0408 -0.77119,-0.0236 -0.72193,0.22222 0.0293,0.14654 0.0909,0.50623 0.13676,0.79931 0.0459,0.29307 0.1136,0.65913 0.15053,0.81345 0.0385,0.16095 -0.0262,0.37396 -0.15182,0.49957 -0.26241,0.26241 -0.38982,0.27421 -0.56623,0.0524 z m 49.81729,-0.27053 c -0.33169,-0.35307 -0.36158,-0.50768 -0.14083,-0.72843 0.11523,-0.11523 0.24886,-0.10348 0.54098,0.0476 0.30526,0.15786 0.37912,0.27683 0.34653,0.55821 -0.0537,0.46391 -0.3763,0.51689 -0.74668,0.12263 z m -11.4175,-0.0742 c -0.58255,-0.3554 -1.15356,-1.25164 -1.23011,-1.93074 -0.12905,-1.14496 0.6632,-2.92285 1.20911,-2.71337 0.29454,0.11303 0.2783,0.42312 -0.0586,1.11904 -0.46361,0.95769 -0.48054,1.55006 -0.0624,2.18196 0.19792,0.29908 0.55774,0.62601 0.80072,0.72753 0.49132,0.20529 0.66284,0.48463 0.43653,0.71094 -0.21875,0.21875 -0.64062,0.18202 -1.09529,-0.0954 z m -41.41499,-0.15546 c -0.55509,-0.0701 -0.72187,-0.16584 -1.13688,-0.65254 -0.45143,-0.52939 -0.48842,-0.63874 -0.51505,-1.52214 -0.0487,-1.61574 0.32788,-2.2572 1.32514,-2.2572 0.44297,0 0.62471,0.075 0.86865,0.35864 0.55626,0.64668 0.34322,1.53339 -0.55864,2.32524 -0.61796,0.54257 -0.55275,0.94932 0.15217,0.94932 0.55499,0 0.9814,0.20258 0.9814,0.46626 0,0.29965 -0.41004,0.4217 -1.11679,0.33242 z m -0.1247,-2.89096 c 0.22501,-0.41782 0.22488,-0.44665 -0.003,-0.67085 -0.22741,-0.22374 -0.24968,-0.22014 -0.49594,0.0802 -0.15709,0.1916 -0.25784,0.51741 -0.25784,0.83374 0,0.48217 0.0186,0.50761 0.26083,0.35635 0.14345,-0.0896 0.36662,-0.35935 0.49594,-0.59947 z m 32.67577,2.86093 c -0.18044,-0.0683 -0.83763,-0.10428 -1.46041,-0.08 -1.08015,0.0421 -1.13427,0.0306 -1.17395,-0.24829 -0.0347,-0.24385 0.0537,-0.31815 0.53286,-0.44772 0.69238,-0.18723 2.41595,-0.10006 2.70112,0.13661 0.50502,0.41912 0.0633,0.8902 -0.59962,0.63944 z m 2.41586,0.0415 c -0.34356,-0.21752 -0.0786,-1.6909 0.83759,-4.65764 0.39074,-1.265263 0.54654,-1.510796 0.92284,-1.454317 0.46247,0.06941 0.74418,0.662255 1.03176,2.171207 0.1536,0.80597 0.42455,1.82978 0.60209,2.27515 0.37438,0.93908 0.40102,1.23346 0.1213,1.3408 -0.30203,0.1159 -0.54915,-0.15811 -0.81875,-0.90783 -0.2611,-0.72609 -0.525,-0.90969 -1.3076,-0.90969 h -0.44549 l -0.16655,0.96583 c -0.21083,1.22259 -0.35637,1.44292 -0.77719,1.17649 z m 2.0633,-3.37458 c -0.0487,-0.23812 -0.12494,-0.69266 -0.16948,-1.01007 l -0.081,-0.57712 -0.31165,0.97677 c -0.17141,0.53722 -0.31246,0.99176 -0.31344,1.01008 -10e-4,0.0183 0.21553,0.0333 0.48113,0.0333 0.47417,0 0.48131,-0.008 0.39441,-0.43295 z m -41.27834,3.2357 c -0.98476,-0.19089 -1.48995,-1.0786 -1.16836,-2.05304 0.33884,-1.0267 1.14546,-1.52652 1.7861,-1.10675 l 0.30427,0.19937 -0.0495,-0.75377 c -0.0272,-0.41457 -0.10829,-1.01162 -0.18011,-1.326772 -0.14741,-0.646895 -0.0869,-0.825773 0.27953,-0.825773 0.37166,0 0.53233,0.407834 0.67223,1.706395 0.0686,0.63678 0.18329,1.54743 0.25485,2.02369 0.0716,0.47625 0.13133,1.06472 0.1328,1.30771 0.003,0.39905 -0.0311,0.43773 -0.34613,0.39965 -0.28184,-0.034 -0.3976,-0.17005 -0.60283,-0.70823 -0.33295,-0.87309 -0.79537,-1.43572 -1.08778,-1.32351 -0.12256,0.047 -0.29017,0.31026 -0.37247,0.58495 -0.21065,0.70307 -0.016,1.01463 0.69333,1.10977 0.69926,0.0938 1.03935,0.38931 0.79159,0.68784 -0.18335,0.22092 -0.32194,0.23074 -1.10749,0.0785 z m 48.22103,0.0438 c -0.15287,-0.15287 -0.10634,-0.53853 0.084,-0.69653 0.28519,-0.23668 0.73479,0.15659 0.54096,0.4732 -0.15959,0.26069 -0.47495,0.37338 -0.625,0.22333 z m -20.58981,-0.16764 c -0.11342,-0.0719 -0.14731,-0.22001 -0.0909,-0.39761 0.0673,-0.21191 0.19838,-0.28306 0.52167,-0.28306 0.42105,0 1.01979,-0.30667 0.87717,-0.44928 -0.0393,-0.0393 -0.45882,-0.20917 -0.93231,-0.37753 -0.75872,-0.26978 -0.86604,-0.35096 -0.90419,-0.68396 -0.0571,-0.49847 0.21725,-0.77937 1.18577,-1.21401 0.94469,-0.42395 1.38865,-0.41201 1.38865,0.0373 0,0.25521 -0.12806,0.35504 -0.7252,0.56533 -0.99438,0.35018 -1.05304,0.45723 -0.35727,0.65203 1.28932,0.36099 1.59125,1.38963 0.5875,2.0016 -0.45148,0.27527 -1.23317,0.35045 -1.55085,0.14915 z m 22.54283,-0.21441 c -0.12584,-0.32793 0.0552,-0.59948 0.39965,-0.59948 0.37099,0 0.56099,0.34702 0.33746,0.61636 -0.20189,0.24327 -0.64114,0.2332 -0.73711,-0.0169 z m 1.73182,-0.13322 c -0.14853,-0.38708 0.0599,-0.61874 0.51708,-0.57468 0.36175,0.0349 0.44088,0.10271 0.47603,0.40816 0.0391,0.33958 0.007,0.36635 -0.43714,0.36635 -0.30314,0 -0.50747,-0.0734 -0.55597,-0.19983 z m -27.91005,-0.256 c -0.095,-0.20842 -0.11351,-0.67994 -0.0524,-1.33217 0.0882,-0.94153 0.11554,-1.00957 0.40518,-1.00957 0.17082,0 0.33333,0.0682 0.36113,0.15166 0.0372,0.11167 0.17223,0.10767 0.51193,-0.0152 0.81911,-0.29619 1.82781,0.32326 1.27436,0.78259 -0.13187,0.10943 -0.28664,0.11322 -0.54908,0.0134 -0.47028,-0.1788 -0.65005,-0.0316 -0.94845,0.7765 -0.38194,1.03439 -0.72192,1.24893 -1.00268,0.63272 z m 7.24144,0.0396 c -0.31419,-0.15552 -0.65889,-0.45224 -0.766,-0.65937 -0.23118,-0.44705 -0.25476,-1.35586 -0.0458,-1.76407 0.27665,-0.54038 1.09608,-1.29011 1.41007,-1.29011 0.32845,0 0.83919,0.42607 0.83837,0.69939 -10e-4,0.31886 -0.52697,1.02686 -1.03789,1.39696 -0.28288,0.20493 -0.48927,0.44779 -0.45863,0.53971 0.0711,0.21321 0.73855,0.56116 1.0765,0.56116 0.28829,0 0.45275,0.29387 0.33548,0.59947 -0.10856,0.28291 -0.68411,0.24752 -1.35212,-0.0831 z m 25.59765,-1.7819 c -0.11661,-0.30387 0.0466,-0.59947 0.33098,-0.59947 0.13987,0 0.32894,0.0899 0.42015,0.19982 0.20847,0.25119 -0.0356,0.59948 -0.42015,0.59948 -0.13987,0 -0.28881,-0.0899 -0.33098,-0.19983 z M 63.819536,100.2462 c -0.08426,-0.0538 -0.174185,-0.2148 -0.199826,-0.357725 -0.0385,-0.214624 0.05769,-0.278167 0.552657,-0.365052 0.827667,-0.145288 1.256427,-0.492722 1.305378,-1.057783 0.05571,-0.643023 -0.39517,-1.249317 -1.464451,-1.969251 -0.48845,-0.328868 -0.949849,-0.733484 -1.025331,-0.899148 -0.177545,-0.38967 0.03524,-1.025815 0.428574,-1.281228 0.696483,-0.452271 2.359816,-0.805906 2.726034,-0.579571 0.436066,0.269505 -0.02035,0.743716 -0.728986,0.757402 -0.206307,0.004 -0.64487,0.110601 -0.974582,0.236924 -0.837031,0.320693 -0.799674,0.620569 0.146156,1.17324 0.78607,0.459319 1.337421,1.072312 1.660964,1.84666 0.278063,0.665498 0.03942,1.567079 -0.525714,1.986152 -0.670564,0.49725 -1.550678,0.7331 -1.900873,0.50938 z m 14.388362,-0.632434 c -0.09013,-0.234868 0.171144,-0.597782 0.43036,-0.597782 0.270178,0 0.475271,0.458947 0.288541,0.645678 -0.217736,0.217735 -0.627444,0.190439 -0.718901,-0.0479 z m 3.334668,-0.255394 c -0.132643,-0.345655 0.05327,-0.631342 0.380599,-0.584861 0.22017,0.03126 0.300332,0.13154 0.300332,0.375691 0,0.244151 -0.08016,0.344426 -0.300332,0.375691 -0.180146,0.02558 -0.332455,-0.04106 -0.380599,-0.166521 z m 3.890102,-0.292664 c -0.111294,-0.290026 0.150299,-0.582592 0.520914,-0.582592 0.370609,0 0.632207,0.292566 0.520914,0.582592 -0.05346,0.139299 -0.239534,0.216711 -0.520914,0.216711 -0.281385,0 -0.467463,-0.07741 -0.520914,-0.216711 z M 73.630989,98.736811 c 0,-0.153546 0.129892,-0.46159 0.288648,-0.684544 l 0.288649,-0.405369 -0.588387,0.07911 c -2.582975,0.347288 -4.274239,0.186565 -4.361117,-0.41444 -0.05598,-0.387268 0.219105,-0.479491 0.890765,-0.298633 0.315083,0.08484 0.898393,0.109802 1.389706,0.05947 0.80532,-0.08251 0.852717,-0.107127 0.969657,-0.503668 0.09701,-0.328973 0.224473,-0.442009 0.604236,-0.535862 0.642805,-0.158859 1.13474,-0.01735 1.617329,0.465238 0.347917,0.347918 0.390011,0.468208 0.327343,0.935435 -0.09707,0.723707 -0.70046,1.582439 -1.111904,1.582439 -0.230904,0 -0.314925,-0.07448 -0.314925,-0.279173 z m 38.235391,-0.782717 c -0.094,-0.175693 -0.10333,-0.715719 -0.0281,-1.63191 0.11596,-1.412693 -0.10909,-7.628042 -0.36525,-10.087197 -0.22829,-2.191699 -0.39529,-5.691172 -0.62384,-13.07284 -0.19013,-6.140972 -0.19488,-7.191233 -0.0341,-7.526771 0.11384,-0.237536 0.29033,-0.389952 0.45153,-0.389952 0.24853,0 0.26199,0.07707 0.22114,1.265564 -0.0239,0.69606 0.0212,2.764257 0.10023,4.595993 0.079,1.831737 0.20368,5.308706 0.27694,7.726598 0.0733,2.417892 0.22354,5.355331 0.33395,6.527642 0.21991,2.334824 0.61535,9.843519 0.53184,10.098492 -0.0287,0.08758 -0.0785,0.678174 -0.11068,1.312434 -0.0322,0.634261 -0.099,1.218751 -0.14856,1.298868 -0.14213,0.229975 -0.45145,0.170209 -0.60511,-0.116921 z m 39.22967,-4.401207 c -0.14147,-0.22891 0.0726,-0.664894 0.32644,-0.664894 0.31888,0 0.56568,0.311469 0.46165,0.582593 -0.0912,0.237734 -0.6556,0.296672 -0.78809,0.0823 z m 3.44595,-0.06542 c -0.12083,-0.314883 0.0438,-0.584055 0.41411,-0.676993 0.60966,-0.153013 1.00526,0.457264 0.47899,0.738915 -0.37241,0.199306 -0.80435,0.169358 -0.8931,-0.06192 z m -6.9951,-0.02259 c -0.29316,-0.07787 -0.3985,-0.528927 -0.16817,-0.720084 0.22957,-0.190529 0.83884,-0.05103 0.9411,0.215469 0.0861,0.224431 -0.17689,0.601648 -0.40326,0.578359 -0.0826,-0.0085 -0.24897,-0.04169 -0.36967,-0.07374 z m -84.020221,-3.35915 c -0.395527,-0.250657 -0.09651,-0.585208 0.723544,-0.809531 1.365763,-0.373598 1.903061,-0.906964 1.725956,-1.713321 -0.105645,-0.481001 -1.019964,-1.589341 -1.94078,-2.352622 -1.345549,-1.115349 -1.461437,-1.236032 -1.461437,-1.521887 0,-0.331109 0.950537,-1.411342 1.485168,-1.68781 0.201653,-0.104278 0.641315,-0.189597 0.977027,-0.189597 0.510616,0 0.628902,0.04899 0.723669,0.299738 0.160125,0.423679 0.07263,0.499565 -0.576003,0.499565 -0.423995,0 -0.714413,0.103433 -1.124484,0.400487 -0.304071,0.220268 -0.551439,0.475046 -0.549708,0.566173 0.0017,0.09113 0.24821,0.34553 0.547729,0.565338 0.779715,0.57221 2.303423,2.23411 2.577086,2.810813 0.162162,0.341732 0.211891,0.677127 0.163787,1.10465 -0.05803,0.51577 -0.163526,0.699468 -0.659833,1.149004 -0.358745,0.324937 -0.878454,0.625771 -1.323306,0.766 -0.821636,0.258996 -1.029297,0.277209 -1.288415,0.113 z m 19.589374,-0.175162 c -0.227798,-0.227798 -0.198519,-0.429947 0.101611,-0.701561 0.50811,-0.459834 0.949804,0.163982 0.461707,0.652079 -0.25125,0.251253 -0.35264,0.260159 -0.563318,0.04948 z m -3.355665,-0.171487 c -0.217682,-0.26229 -0.08648,-0.568125 0.323951,-0.755128 0.255937,-0.116613 0.379917,-0.112578 0.536608,0.01746 0.310061,0.257327 0.245347,0.507801 -0.189265,0.732548 -0.480736,0.248597 -0.469295,0.248511 -0.671294,0.0051 z m 7.065846,-0.52644 c -0.360353,-0.4342 0.278314,-0.887678 0.753062,-0.534706 0.189376,0.140798 0.20868,0.228219 0.0925,0.418866 -0.191601,0.314414 -0.630823,0.374587 -0.845565,0.11584 z M 74.33038,88.936468 c -0.220032,-0.08878 -0.203888,-0.562586 0.03331,-0.977511 0.104711,-0.183174 0.192509,-0.382456 0.195105,-0.442849 0.0058,-0.135757 -3.944892,0.03734 -4.356986,0.190898 -0.597018,0.222464 -0.970241,-0.290903 -0.497014,-0.683645 0.17865,-0.148267 2.128057,-0.347206 3.859592,-0.393876 l 0.532869,-0.01436 -0.665591,-0.2273 c -0.384563,-0.131328 -0.682671,-0.318904 -0.706044,-0.444259 -0.06506,-0.348901 0.346792,-0.649462 0.881586,-0.643367 0.462822,0.0053 0.671383,0.09348 1.726031,0.729994 0.519272,0.313398 0.704907,0.829044 0.383157,1.064314 -0.120219,0.08791 -0.311185,0.422297 -0.424367,0.743091 -0.229696,0.651028 -0.55109,1.192565 -0.698278,1.176581 -0.05326,-0.0058 -0.171777,-0.04075 -0.263364,-0.07771 z m 70.99042,-0.611164 c -0.16389,-0.525904 -0.41861,-2.900177 -0.41861,-3.901828 0,-0.400108 -0.0599,-0.72747 -0.13322,-0.72747 -0.27389,0 -0.11988,-0.62901 0.23795,-0.971838 0.96521,-0.924727 2.75031,-0.415996 3.03143,0.863918 l 0.0935,0.425813 0.24795,-0.658512 c 0.13637,-0.36218 0.37549,-0.763418 0.53139,-0.891639 0.37283,-0.30665 1.07841,-0.296711 1.47041,0.02071 0.22071,0.178713 0.38004,0.218219 0.53838,0.133481 0.36593,-0.195838 0.68371,0.227632 0.60125,0.80121 -0.0961,0.668173 0.0575,0.968739 0.58516,1.145619 0.50361,0.16881 0.7044,0.668358 0.32687,0.813229 -0.26493,0.101664 -1.4031,-0.317939 -1.4031,-0.517276 0,-0.07998 -0.13488,-0.02257 -0.29974,0.127587 -0.72694,0.662115 -1.59715,0.773008 -2.07495,0.264414 -0.15931,-0.169579 -0.29125,-0.394383 -0.2932,-0.499565 -0.002,-0.105181 -0.10193,-0.03269 -0.22218,0.161093 -0.4214,0.679103 -2.02659,1.085152 -2.22684,0.563303 -0.11242,-0.292972 0.15153,-0.582592 0.53096,-0.582592 0.33238,0 0.98957,-0.257819 0.98834,-0.387732 -0.004,-0.371475 -0.33176,-1.108825 -0.56695,-1.273556 -0.38001,-0.266169 -0.97994,-0.26231 -1.08327,0.007 -0.13938,0.363226 -0.0887,1.934724 0.11563,3.581406 0.14329,1.155095 0.15691,1.631606 0.0503,1.760065 -0.24576,0.29612 -0.48579,0.197885 -0.62748,-0.256808 z m 4.72796,-3.799653 c 0.53072,-0.429898 0.74899,-1.096079 0.35912,-1.096079 -0.12245,0 -0.33577,-0.102388 -0.47405,-0.227529 -0.47439,-0.429321 -1.00586,0.339369 -0.82508,1.193354 0.0917,0.432962 0.49698,0.489127 0.94001,0.130254 z m -19.40418,0.791321 c -0.34126,-0.354049 -0.71334,-0.679366 -0.82686,-0.722927 -0.16768,-0.06434 -0.19434,-0.249711 -0.1421,-0.988185 0.053,-0.748786 0.12215,-0.961807 0.39253,-1.208721 0.61132,-0.55827 2.08149,-0.266008 2.26107,0.449489 0.12035,0.479541 -0.26939,1.209177 -0.85634,1.603151 l -0.44064,0.295761 0.32267,0.211419 c 0.17747,0.116282 0.49736,0.198109 0.71088,0.181839 0.45409,-0.0346 0.71364,0.0959 0.71364,0.358816 0,0.265937 -0.43206,0.463085 -1.01487,0.463085 -0.42268,0 -0.59494,-0.09901 -1.11998,-0.643727 z m 0.72718,-1.915141 c 0.23175,-0.330872 0.0922,-0.499534 -0.41621,-0.503088 -0.37914,-0.0027 -0.48082,0.178674 -0.37369,0.666422 0.0739,0.336598 0.124,0.375655 0.33608,0.262154 0.13707,-0.07336 0.34128,-0.264825 0.45382,-0.425488 z m 53.12924,2.470641 c -0.24053,-0.09706 -0.20482,-0.496756 0.0896,-1.0032 0.61274,-1.053892 0.35788,-2.78765 -0.59289,-4.033227 -0.52778,-0.691422 -0.57548,-0.942734 -0.19772,-1.041523 0.40114,-0.1049 0.84272,0.326494 1.31391,1.283612 0.87345,1.774233 0.83763,3.519022 -0.0954,4.649435 -0.20082,0.2433 -0.2438,0.255335 -0.51748,0.144903 z m -57.58313,-0.164711 c -1.20538,-0.145311 -1.59861,-0.492176 -1.59861,-1.410135 0,-1.338284 1.25138,-2.121802 2.19868,-1.37665 l 0.36958,0.290708 -0.0962,-1.612276 c -0.0914,-1.531165 -0.0827,-1.619499 0.17201,-1.755832 0.20867,-0.111678 0.31637,-0.09543 0.48497,0.07318 0.11921,0.119207 0.18887,0.289365 0.15481,0.378129 -0.034,0.08877 -0.007,1.291167 0.0608,2.672003 0.0675,1.380835 0.0769,2.554717 0.0209,2.608626 -0.17016,0.163965 -0.99298,0.225547 -1.76693,0.132246 z m 0.77232,-1.179147 c -0.3454,-0.606671 -0.77171,-1.099042 -0.95158,-1.099042 -0.27098,0 -0.62005,0.452418 -0.62005,0.803638 0,0.486358 0.21419,0.635019 1.00251,0.695827 0.36449,0.02811 0.70565,0.06192 0.75813,0.07513 0.0525,0.0132 -0.0326,-0.200792 -0.18901,-0.475552 z m 7.52268,1.132346 c -0.1661,-0.212276 -0.43519,-1.307905 -0.43519,-1.771952 0,-0.369481 -0.065,-0.377517 -0.94702,-0.117058 -0.26694,0.07883 -0.5743,-0.270917 -0.47211,-0.537218 0.0418,-0.109029 0.35219,-0.267761 0.68966,-0.352737 0.60849,-0.153218 0.613,-0.158511 0.54275,-0.636071 -0.039,-0.264862 -0.10971,-1.003821 -0.15722,-1.642132 l -0.0864,-1.160565 0.40474,-0.404737 c 0.44657,-0.446574 0.75041,-0.49509 1.40022,-0.223582 0.49043,0.204912 1.12286,1.232192 0.983,1.596688 -0.15604,0.406629 -0.60325,0.25403 -0.88731,-0.302768 -0.28823,-0.56498 -0.76097,-0.824875 -0.95224,-0.523506 -0.10858,0.171072 -0.0435,1.947625 0.0962,2.627971 0.0585,0.28465 0.11511,0.307681 0.57562,0.234042 0.36695,-0.05868 0.55685,-0.02615 0.67444,0.115542 0.2627,0.316535 0.052,0.588895 -0.52712,0.681506 -0.48112,0.07693 -0.53796,0.125765 -0.53796,0.462093 0,0.206837 0.0654,0.681029 0.14533,1.05376 0.11057,0.51556 0.10667,0.72429 -0.0163,0.872469 -0.19792,0.238468 -0.32305,0.245638 -0.49314,0.02826 z m 31.13728,-0.274999 c -0.72019,-0.131377 -0.87269,-0.205542 -0.90625,-0.440739 -0.0222,-0.155532 0.0404,-0.313766 0.13906,-0.351633 0.37613,-0.144334 3.1816,0.07046 3.36909,0.25795 0.28332,0.283328 0.0883,0.576101 -0.38476,0.577758 -0.23029,8.06e-4 -0.62852,0.02693 -0.88496,0.05804 -0.25645,0.03112 -0.85592,-0.0145 -1.33218,-0.10138 z m 10.36915,-0.391087 c -0.61648,-0.656719 -1.04112,-1.653843 -1.04264,-2.448249 -0.002,-1.119085 0.69766,-2.447483 1.28932,-2.447483 0.41991,0 0.40338,0.394428 -0.0449,1.071868 -0.51503,0.778261 -0.56446,1.634906 -0.14236,2.467299 0.18329,0.361446 0.45963,0.771374 0.61408,0.910952 0.3322,0.300193 0.36595,0.684185 0.0701,0.797707 -0.30593,0.117395 -0.30044,0.119994 -0.7436,-0.352094 z m -17.75074,-0.05019 c -0.0974,-0.253688 0.10619,-0.538715 0.46634,-0.653019 0.40948,-0.129965 0.29564,-0.431848 -0.31178,-0.826777 -0.6912,-0.449404 -0.88946,-0.682326 -0.89498,-1.051439 -0.005,-0.356068 0.26714,-0.587945 0.73135,-0.622414 0.47119,-0.03499 0.76713,0.377801 0.44357,0.618715 -0.19394,0.144412 -0.15761,0.199219 0.31088,0.468845 1.02182,0.588083 1.11758,1.6978 0.18031,2.089418 -0.59785,0.249795 -0.82306,0.24412 -0.92569,-0.02333 z m 2.60494,0.03997 c -0.25677,-0.309383 -0.51957,-1.067166 -0.61387,-1.770107 -0.19175,-1.429307 0.46579,-2.449321 1.57894,-2.449321 0.75333,0 1.14724,0.361879 1.14724,1.053962 0,0.432084 -0.0893,0.593033 -0.58008,1.045415 -0.31905,0.294086 -0.71219,0.576632 -0.87366,0.627879 -0.22232,0.07056 -0.28361,0.179316 -0.25252,0.448088 0.0348,0.300594 0.11241,0.360415 0.50731,0.390873 0.89562,0.06908 1.06573,0.148798 1.06573,0.499446 0,0.319825 -0.0296,0.330505 -0.9162,0.330505 -0.5987,0 -0.96705,-0.06125 -1.06289,-0.17674 z m 0.86748,-2.560992 c 0.53696,-0.409559 0.6008,-0.859133 0.122,-0.859133 -0.35307,0 -0.74221,0.313585 -0.74221,0.598098 0,0.09868 -0.0364,0.274239 -0.0809,0.390136 -0.12113,0.315654 0.19406,0.257612 0.70107,-0.129101 z m 26.03329,2.55002 c -0.2602,-0.313511 -0.12135,-0.6782 0.2582,-0.6782 0.27888,0 0.33122,0.06288 0.33122,0.397827 0,0.449716 -0.32183,0.602802 -0.58942,0.280373 z m -9.20204,-0.264296 c 0,-0.340778 0.27288,-0.520796 0.59947,-0.395471 0.1099,0.04217 0.19983,0.220136 0.19983,0.395471 0,0.2654 -0.0669,0.318791 -0.39965,0.318791 -0.33272,0 -0.39965,-0.05339 -0.39965,-0.318791 z m 1.19895,-0.01171 c 0,-0.421278 0.57894,-0.613035 0.8954,-0.296573 0.32276,0.322761 0.11653,0.627078 -0.42496,0.627078 -0.41203,-5e-6 -0.47044,-0.04104 -0.47044,-0.33051 z M 154.30576,84.51805 c -0.22743,-0.439809 -0.48244,-1.854484 -0.38163,-2.117179 0.0932,-0.24288 0.6588,-0.210916 0.75614,0.04273 0.0672,0.175065 0.15038,0.139488 0.46735,-0.199826 0.41761,-0.447056 0.93101,-0.534781 1.53069,-0.261549 0.41767,0.190299 0.51012,0.42252 0.28875,0.725263 -0.15347,0.209871 -0.22063,0.216529 -0.59984,0.05946 -0.633,-0.262199 -0.9538,0.106535 -1.06012,1.218522 -0.0758,0.792496 -0.10202,0.845359 -0.43931,0.884301 -0.28352,0.03273 -0.40135,-0.04101 -0.56203,-0.351724 z m 17.69743,-0.07923 c -0.36369,-0.26594 -0.13655,-0.585954 0.53612,-0.755336 0.87124,-0.219379 0.84113,-0.3311 -0.60869,-2.259155 -1.45396,-1.933575 -1.62083,-2.459175 -0.97374,-3.067089 0.29106,-0.273434 0.4766,-0.32296 1.20989,-0.32296 0.81321,0 0.8903,0.02709 1.26238,0.443511 0.31624,0.353938 0.36455,0.481734 0.23919,0.632781 -0.21033,0.253441 -0.35237,0.238909 -0.75419,-0.07716 -0.34924,-0.274715 -1.03129,-0.349419 -1.34947,-0.147809 -0.28315,0.179409 -0.0991,0.537296 1.10733,2.15366 0.61329,0.821655 1.17161,1.716663 1.24071,1.988905 0.18128,0.714201 -0.0815,1.151052 -0.80361,1.335865 -0.31039,0.07944 -0.63346,0.167336 -0.71793,0.19532 -0.0845,0.02798 -0.25906,-0.02625 -0.38799,-0.12053 z m 10.65122,-0.133988 c -0.13264,-0.345654 0.0533,-0.631342 0.3806,-0.584861 0.22018,0.03126 0.30034,0.13154 0.30034,0.375691 0,0.244152 -0.0802,0.344427 -0.30034,0.375692 -0.18014,0.02558 -0.33245,-0.04106 -0.3806,-0.166522 z m 5.43679,-3.166597 c -0.24641,-0.246411 -0.18957,-0.600599 0.10892,-0.678655 0.32078,-0.08388 0.70997,0.259455 0.60479,0.533546 -0.0408,0.106448 -0.0743,0.218615 -0.0743,0.249257 0,0.124569 -0.49064,0.04466 -0.63944,-0.104148 z M 91.567454,74.800792 c -0.120875,-0.195571 -0.485015,-2.326257 -0.485015,-2.837928 0,-0.601911 0.380766,-0.933244 0.670826,-0.583741 0.145405,0.175203 0.18933,0.166524 0.355117,-0.07017 0.571919,-0.81653 2.689818,-0.90888 3.103804,-0.13534 0.209133,0.390769 -0.177236,0.618627 -0.717631,0.423218 -0.700441,-0.253283 -1.332054,-0.197768 -1.626158,0.142931 -0.82123,0.951331 -0.872139,1.100022 -0.698779,2.040889 0.136699,0.741893 0.132108,0.895339 -0.02986,0.997827 -0.235969,0.149313 -0.487748,0.15913 -0.572301,0.02231 z M 65.489058,74.45332 c -1.370507,-0.489752 -1.965338,-1.23521 -2.298125,-2.880079 -0.173814,-0.859111 -0.177252,-1.139146 -0.02453,-1.998257 0.438426,-2.466298 1.600301,-3.996516 3.0345,-3.996516 0.854153,0 1.866815,0.84308 1.660005,1.382018 -0.12489,0.325461 -0.424856,0.262364 -0.870283,-0.183063 -0.594306,-0.594307 -1.107974,-0.547224 -1.816695,0.166521 -0.726464,0.731614 -1.142202,1.827027 -1.226066,3.230517 -0.09084,1.52028 0.227798,2.500735 1.005494,3.093904 1.011764,0.771698 1.930888,0.535946 2.105499,-0.540051 l 0.07734,-0.47658 -0.500147,0.138098 c -0.393114,0.108544 -0.54022,0.09802 -0.687405,-0.04916 -0.256946,-0.256947 -0.098,-0.591944 0.331736,-0.699178 0.19619,-0.04895 0.449569,-0.172649 0.563067,-0.274875 0.114891,-0.103481 0.55775,-0.202215 0.999129,-0.222751 0.736378,-0.03426 0.795831,-0.01531 0.835804,0.266391 0.0332,0.233982 -0.04641,0.334456 -0.34841,0.439735 -0.35218,0.12277 -0.398835,0.208079 -0.465139,0.8505 -0.09263,0.897511 -0.365418,1.317355 -1.081011,1.663767 -0.652763,0.315998 -0.658583,0.316398 -1.29476,0.08906 z m 74.362662,-0.26814 c -0.15885,-0.191411 -0.58674,-2.232591 -0.74814,-3.568979 -0.0549,-0.454863 -0.16555,-0.78565 -0.27703,-0.828427 -0.22138,-0.08495 -0.24465,-0.500077 -0.0395,-0.705211 0.15533,-0.155334 0.0307,-3.63556 -0.12954,-3.615941 -0.29884,0.0366 -0.41617,-0.06245 -0.41617,-0.351317 0,-0.39761 1.09805,-1.324709 1.79781,-1.517923 0.97682,-0.269714 2.18564,0.29534 2.80136,1.309485 0.46445,0.76499 0.56627,1.551022 0.27411,2.116001 -0.36546,0.706728 -1.57146,1.802257 -2.44693,2.222797 -0.46598,0.223835 -0.82466,0.482782 -0.8252,0.595753 -0.002,0.335092 0.38419,2.823675 0.54258,3.499778 0.11445,0.48858 0.11108,0.68118 -0.0146,0.832608 -0.20374,0.245492 -0.32227,0.248091 -0.51873,0.01138 z M 140.39,68.500475 c 0.74311,-0.379111 1.94055,-1.572555 2.05985,-2.052988 0.13311,-0.536047 -0.40071,-1.49268 -1.01755,-1.823495 -0.5314,-0.284989 -1.30668,-0.318728 -1.64468,-0.07157 -0.2162,0.158086 -0.22821,0.34648 -0.14007,2.198083 0.053,1.113849 0.12038,2.025179 0.1497,2.025179 0.0293,0 0.29605,-0.123842 0.59275,-0.275205 z m -67.348773,5.261534 c -0.745839,-0.745839 -0.125922,-2.59212 0.976503,-2.908292 0.344777,-0.09888 0.493941,-0.07109 0.785432,0.146328 0.197903,0.147614 0.378174,0.381932 0.400601,0.520706 0.102989,0.637274 0.341282,1.001475 0.702528,1.073724 0.451204,0.09024 0.582858,0.364525 0.307257,0.640126 -0.255891,0.255893 -0.365512,0.254774 -0.875458,-0.0089 -0.397341,-0.205475 -0.420594,-0.201425 -0.692774,0.120666 -0.525043,0.621324 -1.218689,0.80107 -1.604089,0.41567 z m 1.089327,-1.119696 c 0.287421,-0.424208 0.408604,-1.071294 0.199826,-1.067032 -0.33989,0.0069 -0.832608,0.739357 -0.832608,1.237658 0,0.482927 0.232432,0.420253 0.632782,-0.170626 z m -4.069735,0.948503 c -0.221975,-0.140803 -0.559563,-1.25776 -0.559563,-1.851393 0,-0.336878 0.0665,-0.47495 0.252143,-0.523496 0.146046,-0.03819 0.28443,-0.227385 0.32888,-0.449626 0.09919,-0.495979 0.532654,-0.924883 0.934706,-0.924883 0.174226,0 0.537765,0.09234 0.807865,0.205191 0.384598,0.160695 0.482014,0.269026 0.449225,0.499565 -0.04269,0.300129 -0.226684,0.337799 -1.03606,0.212109 -0.397445,-0.06172 -0.49815,0.263812 -0.522043,1.687531 -0.01817,1.08246 -0.214048,1.424802 -0.655153,1.145002 z m 75.674821,-0.156373 c -0.89035,-0.357956 -1.10808,-2.097711 -0.397,-3.172215 0.40844,-0.617207 1.10985,-0.892331 1.89798,-0.744476 0.74979,0.140661 1.12921,0.521238 1.12921,1.132638 0,0.672357 0.36303,1.056069 0.99913,1.056069 0.40298,0 0.46626,0.04327 0.46626,0.31879 0,0.537448 -0.83809,0.658943 -1.55019,0.224726 l -0.41785,-0.254791 -0.31485,0.484139 c -0.31517,0.484646 -1.09087,1.099613 -1.36697,1.083732 -0.0808,-0.0046 -0.28133,-0.06252 -0.44572,-0.128612 z m 1.02532,-1.186314 c 0.28832,-0.404904 0.67235,-1.370639 0.67235,-1.690766 0,-0.304037 -1.10698,-0.23908 -1.39756,0.08201 -0.30167,0.333341 -0.43448,1.518503 -0.20161,1.799093 0.25905,0.312144 0.62212,0.237585 0.92682,-0.190337 z M 87.337446,73.237361 C 86.57593,72.825987 86.527801,71.78151 87.233338,70.97795 c 0.7644,-0.870602 1.412141,-0.734365 1.91504,0.402784 0.287487,0.650062 0.363052,0.725376 0.727776,0.725376 0.344473,0 0.406982,0.05077 0.406982,0.330505 0,0.408162 -0.524116,0.580797 -1.101568,0.362835 -0.341014,-0.128719 -0.423618,-0.108098 -0.675896,0.168721 -0.37867,0.415511 -0.742267,0.499294 -1.168226,0.26919 z m 0.813225,-1.128858 c 0.182045,-0.439496 0.09289,-0.853834 -0.165601,-0.769633 -0.230869,0.0752 -0.537534,0.742398 -0.448214,0.975158 0.123116,0.320834 0.4397,0.214833 0.613815,-0.205525 z M 77.17762,73.198345 c -0.03628,-0.0587 -0.136882,-0.514005 -0.223568,-1.011795 -0.134619,-0.773032 -0.12841,-0.934276 0.04255,-1.105239 0.15544,-0.15544 0.261364,-0.167413 0.474057,-0.05358 0.180604,0.09666 0.302009,0.101086 0.356447,0.01301 0.144642,-0.234035 0.710759,-0.143643 0.913539,0.145867 l 0.19573,0.279444 0.14792,-0.276391 c 0.437665,-0.817785 1.102252,-0.598531 1.785244,0.588971 0.540568,0.939875 0.592486,1.191424 0.271334,1.314661 -0.289616,0.111136 -0.499638,-0.08303 -0.97461,-0.901058 l -0.39808,-0.685594 -0.295405,0.694489 c -0.162473,0.381969 -0.374362,0.724787 -0.470863,0.761818 -0.314111,0.120535 -0.586788,-0.08261 -0.670112,-0.499235 -0.08103,-0.405153 -0.08291,-0.403607 -0.263771,0.216648 -0.151917,0.521004 -0.235471,0.624713 -0.503307,0.624713 -0.176632,0 -0.350831,-0.04802 -0.387108,-0.106721 z m 5.512745,-0.158586 c -0.0781,-0.145917 -0.178898,-0.743911 -0.224006,-1.328873 -0.0726,-0.941429 -0.05481,-1.074011 0.154947,-1.1545 0.13033,-0.05001 0.346547,-0.0225 0.480483,0.06115 0.133935,0.08364 0.338048,0.115809 0.453576,0.07148 0.115528,-0.04433 0.322949,0.02156 0.460927,0.146429 0.2375,0.214935 0.258783,0.212247 0.399375,-0.05045 0.181899,-0.339885 0.691026,-0.363364 0.961822,-0.04436 0.108841,0.128221 0.302698,0.517261 0.430788,0.864534 0.12809,0.347272 0.288122,0.665535 0.355621,0.707252 0.191203,0.118169 0.144207,0.59311 -0.06669,0.674041 -0.334342,0.1283 -0.713713,-0.195013 -0.947684,-0.807655 l -0.227777,-0.59643 -0.293328,0.428388 c -0.219686,0.320844 -0.3828,0.422092 -0.649729,0.403309 -0.287714,-0.02025 -0.356406,0.03239 -0.356406,0.273095 0,0.596533 -0.66642,0.848674 -0.931915,0.352591 z m 73.893345,-0.594622 c -0.11744,-0.117436 -0.18146,-0.297072 -0.14227,-0.39919 0.0838,-0.218266 0.42368,-0.37166 0.59246,-0.267349 0.065,0.04015 0.3607,0.0077 0.65719,-0.07215 l 0.53906,-0.145154 -0.36947,-0.307305 c -0.20321,-0.169018 -0.63923,-0.472575 -0.96894,-0.674571 -0.32972,-0.201996 -0.67442,-0.462138 -0.76601,-0.578093 -0.5029,-0.636716 0.22028,-1.815058 1.06406,-1.733773 0.56754,0.05467 0.59116,0.466306 0.0442,0.769474 -0.21476,0.119028 -0.41255,0.282667 -0.43954,0.363642 -0.027,0.08097 0.26861,0.329322 0.6569,0.551881 2.04798,1.17387 2.05964,2.349921 0.0259,2.616852 -0.53249,0.06989 -0.72637,0.04293 -0.89356,-0.124262 z m 5.41744,-0.338051 c -0.15723,-0.06344 -0.51311,-0.342583 -0.79083,-0.620309 -0.38328,-0.383284 -0.59467,-0.495546 -0.87725,-0.465904 -0.20477,0.02148 -0.48779,0.0024 -0.62895,-0.0424 -0.62351,-0.197894 -0.3188,-0.870616 0.39435,-0.870616 0.36507,0 0.39013,-0.03357 0.39013,-0.522648 0,-0.62817 0.52741,-1.342393 0.99127,-1.342393 0.41198,0 1.16943,0.531686 1.37939,0.968252 0.259,0.538561 -0.0969,1.106636 -0.90527,1.44492 l -0.33304,0.139371 0.39965,0.321673 c 0.48696,0.391952 0.52575,0.393636 1.01659,0.04412 0.21541,-0.153381 0.48364,-0.24357 0.59608,-0.200422 0.33378,0.128083 0.157,0.64452 -0.3335,0.974281 -0.4743,0.318864 -0.82098,0.364802 -1.29862,0.172075 z m -0.10593,-2.332366 c 0.25354,-0.196007 0.25231,-0.205232 -0.063,-0.472026 -0.35749,-0.302461 -0.53851,-0.178211 -0.54226,0.372202 -0.003,0.346697 0.23526,0.385885 0.60528,0.09982 z m -10.27932,2.097251 c -0.49553,-0.410521 -0.91847,-2.575169 -0.60102,-3.076094 0.0626,-0.0988 0.22655,-0.158182 0.3643,-0.13197 0.20064,0.03818 0.25849,0.186558 0.29074,0.745803 0.0222,0.383978 0.0735,0.698142 0.11405,0.698142 0.0406,0 0.19196,-0.150248 0.33641,-0.333885 0.36865,-0.468662 0.73009,-0.638595 1.57414,-0.740083 0.77576,-0.09328 1.19896,0.02718 1.19896,0.341274 0,0.281537 -0.43795,0.46626 -1.10543,0.46626 -0.93511,0 -1.3059,0.474486 -1.45638,1.86368 -0.0441,0.4069 -0.34215,0.476393 -0.71577,0.166873 z m 14.0179,-0.198817 c -0.2327,-0.367827 -0.61582,-2.044349 -0.61582,-2.694823 0,-0.899151 0.78773,-0.72465 0.81258,0.180008 0.007,0.26579 0.0544,0.63056 0.10458,0.810601 0.0846,0.303224 0.10831,0.282804 0.32213,-0.277081 0.32841,-0.859937 0.82552,-1.284789 1.69685,-1.450215 0.92032,-0.174726 1.78799,-0.04772 2.22151,0.32518 0.32137,0.276428 0.32625,0.301053 0.10374,0.523559 -0.15337,0.153377 -0.30758,0.19658 -0.44944,0.125915 -0.11878,-0.05917 -0.68546,-0.107575 -1.25929,-0.107575 -1.23296,0 -1.28839,0.04745 -1.71166,1.46539 -0.40583,1.359505 -0.82342,1.734099 -1.22518,1.099041 z"
       id="path847" />
  </g>
</svg>
