<svg width="200" transform="rotate(0 0 0)" xmlns="http://www.w3.org/2000/svg" viewBox="0 0 10 10">
    <rect x="0" y="0" width="10" height="10" fill="#fff"></rect>
    <path title='rect'
        d="M 0,0 v10 h10 v-10 Z" style="fill:#ffffff"></path>
    <path title='corner-rect'
        d="M0,0 h5 v5 h-5 Z" style="fill:#df8022"></path>
    <path transform="rotate(180 5 5)" title='hex'
        d="M5,1.5 h2  L9,5 L7,8.5 h-2 Z" style="fill:#253092"></path>
    <path transform="rotate(270 5 5)" title='bitten-circle'
        d="M3,5 a2,2 0 1,1 2,2 v-2" style="fill:#df8022"></path>
    <path transform="rotate(270 5 5)" title='frame'
        d="M0,0 h5 L0,5 Z M5,0 h5 v5 Z M10,5 v5 h-5 Z"
        style="fill:#bf3011"></path>
    <path transform="rotate(270 5 5)" title='big-tri'
        d="M 0,10 H10 V0 Z" style="fill:#3896d4"></path>
</svg>