<svg width="200" transform="rotate(0 0 0)" xmlns="http://www.w3.org/2000/svg" viewBox="0 0 10 10">
    <rect x="0" y="0" width="10" height="10" fill="#fff"></rect>
    <path title='rect'
        d="M 0,0 v10 h10 v-10 Z" style="fill:#ffffff"></path>
    <path title='big-tri'
        d="M 0,10 H10 V0 Z" style="fill:#3896d4"></path>
    <path transform="rotate(270 5 5)" title='hex-concave'
        d="M0,0 v5 h1 L3,1.5 h4  L9,5 h1 v-5 Z" style="fill:#253092"></path>
    <path transform="rotate(270 5 5)" title='bowl'
        d="M0,5 a1,1 0 0,0 10,0 v-1 h-10 Z" style="fill:#820d7c"></path>
    <path transform="rotate(270 5 5)" title='hole'
        d="M2,5 a3,3 0 1,1 6,0
        M5,5 m 2,0 
        a2,2 0 1,0 -4,0" style="fill:#04010a"></path>
</svg>